G04 #@! TF.GenerationSoftware,KiCad,Pcbnew,8.0.9-8.0.9-0~ubuntu22.04.1*
G04 #@! TF.CreationDate,2025-06-29T10:23:46+10:00*
G04 #@! TF.ProjectId,Memory_Expansion_Cartridge,4d656d6f-7279-45f4-9578-70616e73696f,rev?*
G04 #@! TF.SameCoordinates,Original*
G04 #@! TF.FileFunction,Legend,Top*
G04 #@! TF.FilePolarity,Positive*
%FSLAX46Y46*%
G04 Gerber Fmt 4.6, Leading zero omitted, Abs format (unit mm)*
G04 Created by KiCad (PCBNEW 8.0.9-8.0.9-0~ubuntu22.04.1) date 2025-06-29 10:23:46*
%MOMM*%
%LPD*%
G01*
G04 APERTURE LIST*
%ADD10C,0.150000*%
%ADD11C,0.120000*%
G04 APERTURE END LIST*
D10*
X155471905Y-47444819D02*
X155471905Y-46444819D01*
X155471905Y-46444819D02*
X155710000Y-46444819D01*
X155710000Y-46444819D02*
X155852857Y-46492438D01*
X155852857Y-46492438D02*
X155948095Y-46587676D01*
X155948095Y-46587676D02*
X155995714Y-46682914D01*
X155995714Y-46682914D02*
X156043333Y-46873390D01*
X156043333Y-46873390D02*
X156043333Y-47016247D01*
X156043333Y-47016247D02*
X155995714Y-47206723D01*
X155995714Y-47206723D02*
X155948095Y-47301961D01*
X155948095Y-47301961D02*
X155852857Y-47397200D01*
X155852857Y-47397200D02*
X155710000Y-47444819D01*
X155710000Y-47444819D02*
X155471905Y-47444819D01*
X156995714Y-47444819D02*
X156424286Y-47444819D01*
X156710000Y-47444819D02*
X156710000Y-46444819D01*
X156710000Y-46444819D02*
X156614762Y-46587676D01*
X156614762Y-46587676D02*
X156519524Y-46682914D01*
X156519524Y-46682914D02*
X156424286Y-46730533D01*
X126833333Y-116564580D02*
X126785714Y-116612200D01*
X126785714Y-116612200D02*
X126642857Y-116659819D01*
X126642857Y-116659819D02*
X126547619Y-116659819D01*
X126547619Y-116659819D02*
X126404762Y-116612200D01*
X126404762Y-116612200D02*
X126309524Y-116516961D01*
X126309524Y-116516961D02*
X126261905Y-116421723D01*
X126261905Y-116421723D02*
X126214286Y-116231247D01*
X126214286Y-116231247D02*
X126214286Y-116088390D01*
X126214286Y-116088390D02*
X126261905Y-115897914D01*
X126261905Y-115897914D02*
X126309524Y-115802676D01*
X126309524Y-115802676D02*
X126404762Y-115707438D01*
X126404762Y-115707438D02*
X126547619Y-115659819D01*
X126547619Y-115659819D02*
X126642857Y-115659819D01*
X126642857Y-115659819D02*
X126785714Y-115707438D01*
X126785714Y-115707438D02*
X126833333Y-115755057D01*
X127785714Y-116659819D02*
X127214286Y-116659819D01*
X127500000Y-116659819D02*
X127500000Y-115659819D01*
X127500000Y-115659819D02*
X127404762Y-115802676D01*
X127404762Y-115802676D02*
X127309524Y-115897914D01*
X127309524Y-115897914D02*
X127214286Y-115945533D01*
X151638095Y-57744819D02*
X151638095Y-58554342D01*
X151638095Y-58554342D02*
X151685714Y-58649580D01*
X151685714Y-58649580D02*
X151733333Y-58697200D01*
X151733333Y-58697200D02*
X151828571Y-58744819D01*
X151828571Y-58744819D02*
X152019047Y-58744819D01*
X152019047Y-58744819D02*
X152114285Y-58697200D01*
X152114285Y-58697200D02*
X152161904Y-58649580D01*
X152161904Y-58649580D02*
X152209523Y-58554342D01*
X152209523Y-58554342D02*
X152209523Y-57744819D01*
X152590476Y-57744819D02*
X153209523Y-57744819D01*
X153209523Y-57744819D02*
X152876190Y-58125771D01*
X152876190Y-58125771D02*
X153019047Y-58125771D01*
X153019047Y-58125771D02*
X153114285Y-58173390D01*
X153114285Y-58173390D02*
X153161904Y-58221009D01*
X153161904Y-58221009D02*
X153209523Y-58316247D01*
X153209523Y-58316247D02*
X153209523Y-58554342D01*
X153209523Y-58554342D02*
X153161904Y-58649580D01*
X153161904Y-58649580D02*
X153114285Y-58697200D01*
X153114285Y-58697200D02*
X153019047Y-58744819D01*
X153019047Y-58744819D02*
X152733333Y-58744819D01*
X152733333Y-58744819D02*
X152638095Y-58697200D01*
X152638095Y-58697200D02*
X152590476Y-58649580D01*
X150566667Y-112214819D02*
X150566667Y-111214819D01*
X150566667Y-111214819D02*
X150900000Y-111929104D01*
X150900000Y-111929104D02*
X151233333Y-111214819D01*
X151233333Y-111214819D02*
X151233333Y-112214819D01*
X151709524Y-111691009D02*
X152042857Y-111691009D01*
X152185714Y-112214819D02*
X151709524Y-112214819D01*
X151709524Y-112214819D02*
X151709524Y-111214819D01*
X151709524Y-111214819D02*
X152185714Y-111214819D01*
X152614286Y-112214819D02*
X152614286Y-111214819D01*
X152614286Y-111214819D02*
X152947619Y-111929104D01*
X152947619Y-111929104D02*
X153280952Y-111214819D01*
X153280952Y-111214819D02*
X153280952Y-112214819D01*
X153709524Y-111310057D02*
X153757143Y-111262438D01*
X153757143Y-111262438D02*
X153852381Y-111214819D01*
X153852381Y-111214819D02*
X154090476Y-111214819D01*
X154090476Y-111214819D02*
X154185714Y-111262438D01*
X154185714Y-111262438D02*
X154233333Y-111310057D01*
X154233333Y-111310057D02*
X154280952Y-111405295D01*
X154280952Y-111405295D02*
X154280952Y-111500533D01*
X154280952Y-111500533D02*
X154233333Y-111643390D01*
X154233333Y-111643390D02*
X153661905Y-112214819D01*
X153661905Y-112214819D02*
X154280952Y-112214819D01*
X128778095Y-125184819D02*
X128778095Y-125994342D01*
X128778095Y-125994342D02*
X128825714Y-126089580D01*
X128825714Y-126089580D02*
X128873333Y-126137200D01*
X128873333Y-126137200D02*
X128968571Y-126184819D01*
X128968571Y-126184819D02*
X129159047Y-126184819D01*
X129159047Y-126184819D02*
X129254285Y-126137200D01*
X129254285Y-126137200D02*
X129301904Y-126089580D01*
X129301904Y-126089580D02*
X129349523Y-125994342D01*
X129349523Y-125994342D02*
X129349523Y-125184819D01*
X130349523Y-126184819D02*
X129778095Y-126184819D01*
X130063809Y-126184819D02*
X130063809Y-125184819D01*
X130063809Y-125184819D02*
X129968571Y-125327676D01*
X129968571Y-125327676D02*
X129873333Y-125422914D01*
X129873333Y-125422914D02*
X129778095Y-125470533D01*
X137850952Y-121374819D02*
X138517618Y-121374819D01*
X138517618Y-121374819D02*
X138089047Y-122374819D01*
X139327142Y-121708152D02*
X139327142Y-122374819D01*
X139089047Y-121327200D02*
X138850952Y-122041485D01*
X138850952Y-122041485D02*
X139469999Y-122041485D01*
X140327142Y-122374819D02*
X139850952Y-122374819D01*
X139850952Y-122374819D02*
X139850952Y-121374819D01*
X140612857Y-122327200D02*
X140755714Y-122374819D01*
X140755714Y-122374819D02*
X140993809Y-122374819D01*
X140993809Y-122374819D02*
X141089047Y-122327200D01*
X141089047Y-122327200D02*
X141136666Y-122279580D01*
X141136666Y-122279580D02*
X141184285Y-122184342D01*
X141184285Y-122184342D02*
X141184285Y-122089104D01*
X141184285Y-122089104D02*
X141136666Y-121993866D01*
X141136666Y-121993866D02*
X141089047Y-121946247D01*
X141089047Y-121946247D02*
X140993809Y-121898628D01*
X140993809Y-121898628D02*
X140803333Y-121851009D01*
X140803333Y-121851009D02*
X140708095Y-121803390D01*
X140708095Y-121803390D02*
X140660476Y-121755771D01*
X140660476Y-121755771D02*
X140612857Y-121660533D01*
X140612857Y-121660533D02*
X140612857Y-121565295D01*
X140612857Y-121565295D02*
X140660476Y-121470057D01*
X140660476Y-121470057D02*
X140708095Y-121422438D01*
X140708095Y-121422438D02*
X140803333Y-121374819D01*
X140803333Y-121374819D02*
X141041428Y-121374819D01*
X141041428Y-121374819D02*
X141184285Y-121422438D01*
X142136666Y-122374819D02*
X141565238Y-122374819D01*
X141850952Y-122374819D02*
X141850952Y-121374819D01*
X141850952Y-121374819D02*
X141755714Y-121517676D01*
X141755714Y-121517676D02*
X141660476Y-121612914D01*
X141660476Y-121612914D02*
X141565238Y-121660533D01*
X142470000Y-121374819D02*
X143089047Y-121374819D01*
X143089047Y-121374819D02*
X142755714Y-121755771D01*
X142755714Y-121755771D02*
X142898571Y-121755771D01*
X142898571Y-121755771D02*
X142993809Y-121803390D01*
X142993809Y-121803390D02*
X143041428Y-121851009D01*
X143041428Y-121851009D02*
X143089047Y-121946247D01*
X143089047Y-121946247D02*
X143089047Y-122184342D01*
X143089047Y-122184342D02*
X143041428Y-122279580D01*
X143041428Y-122279580D02*
X142993809Y-122327200D01*
X142993809Y-122327200D02*
X142898571Y-122374819D01*
X142898571Y-122374819D02*
X142612857Y-122374819D01*
X142612857Y-122374819D02*
X142517619Y-122327200D01*
X142517619Y-122327200D02*
X142470000Y-122279580D01*
X143565238Y-122374819D02*
X143755714Y-122374819D01*
X143755714Y-122374819D02*
X143850952Y-122327200D01*
X143850952Y-122327200D02*
X143898571Y-122279580D01*
X143898571Y-122279580D02*
X143993809Y-122136723D01*
X143993809Y-122136723D02*
X144041428Y-121946247D01*
X144041428Y-121946247D02*
X144041428Y-121565295D01*
X144041428Y-121565295D02*
X143993809Y-121470057D01*
X143993809Y-121470057D02*
X143946190Y-121422438D01*
X143946190Y-121422438D02*
X143850952Y-121374819D01*
X143850952Y-121374819D02*
X143660476Y-121374819D01*
X143660476Y-121374819D02*
X143565238Y-121422438D01*
X143565238Y-121422438D02*
X143517619Y-121470057D01*
X143517619Y-121470057D02*
X143470000Y-121565295D01*
X143470000Y-121565295D02*
X143470000Y-121803390D01*
X143470000Y-121803390D02*
X143517619Y-121898628D01*
X143517619Y-121898628D02*
X143565238Y-121946247D01*
X143565238Y-121946247D02*
X143660476Y-121993866D01*
X143660476Y-121993866D02*
X143850952Y-121993866D01*
X143850952Y-121993866D02*
X143946190Y-121946247D01*
X143946190Y-121946247D02*
X143993809Y-121898628D01*
X143993809Y-121898628D02*
X144041428Y-121803390D01*
X131913333Y-49984819D02*
X131580000Y-49508628D01*
X131341905Y-49984819D02*
X131341905Y-48984819D01*
X131341905Y-48984819D02*
X131722857Y-48984819D01*
X131722857Y-48984819D02*
X131818095Y-49032438D01*
X131818095Y-49032438D02*
X131865714Y-49080057D01*
X131865714Y-49080057D02*
X131913333Y-49175295D01*
X131913333Y-49175295D02*
X131913333Y-49318152D01*
X131913333Y-49318152D02*
X131865714Y-49413390D01*
X131865714Y-49413390D02*
X131818095Y-49461009D01*
X131818095Y-49461009D02*
X131722857Y-49508628D01*
X131722857Y-49508628D02*
X131341905Y-49508628D01*
X132294286Y-49080057D02*
X132341905Y-49032438D01*
X132341905Y-49032438D02*
X132437143Y-48984819D01*
X132437143Y-48984819D02*
X132675238Y-48984819D01*
X132675238Y-48984819D02*
X132770476Y-49032438D01*
X132770476Y-49032438D02*
X132818095Y-49080057D01*
X132818095Y-49080057D02*
X132865714Y-49175295D01*
X132865714Y-49175295D02*
X132865714Y-49270533D01*
X132865714Y-49270533D02*
X132818095Y-49413390D01*
X132818095Y-49413390D02*
X132246667Y-49984819D01*
X132246667Y-49984819D02*
X132865714Y-49984819D01*
X130341905Y-46540057D02*
X130389524Y-46492438D01*
X130389524Y-46492438D02*
X130484762Y-46444819D01*
X130484762Y-46444819D02*
X130722857Y-46444819D01*
X130722857Y-46444819D02*
X130818095Y-46492438D01*
X130818095Y-46492438D02*
X130865714Y-46540057D01*
X130865714Y-46540057D02*
X130913333Y-46635295D01*
X130913333Y-46635295D02*
X130913333Y-46730533D01*
X130913333Y-46730533D02*
X130865714Y-46873390D01*
X130865714Y-46873390D02*
X130294286Y-47444819D01*
X130294286Y-47444819D02*
X130913333Y-47444819D01*
X131294286Y-46540057D02*
X131341905Y-46492438D01*
X131341905Y-46492438D02*
X131437143Y-46444819D01*
X131437143Y-46444819D02*
X131675238Y-46444819D01*
X131675238Y-46444819D02*
X131770476Y-46492438D01*
X131770476Y-46492438D02*
X131818095Y-46540057D01*
X131818095Y-46540057D02*
X131865714Y-46635295D01*
X131865714Y-46635295D02*
X131865714Y-46730533D01*
X131865714Y-46730533D02*
X131818095Y-46873390D01*
X131818095Y-46873390D02*
X131246667Y-47444819D01*
X131246667Y-47444819D02*
X131865714Y-47444819D01*
X132484762Y-46444819D02*
X132580000Y-46444819D01*
X132580000Y-46444819D02*
X132675238Y-46492438D01*
X132675238Y-46492438D02*
X132722857Y-46540057D01*
X132722857Y-46540057D02*
X132770476Y-46635295D01*
X132770476Y-46635295D02*
X132818095Y-46825771D01*
X132818095Y-46825771D02*
X132818095Y-47063866D01*
X132818095Y-47063866D02*
X132770476Y-47254342D01*
X132770476Y-47254342D02*
X132722857Y-47349580D01*
X132722857Y-47349580D02*
X132675238Y-47397200D01*
X132675238Y-47397200D02*
X132580000Y-47444819D01*
X132580000Y-47444819D02*
X132484762Y-47444819D01*
X132484762Y-47444819D02*
X132389524Y-47397200D01*
X132389524Y-47397200D02*
X132341905Y-47349580D01*
X132341905Y-47349580D02*
X132294286Y-47254342D01*
X132294286Y-47254342D02*
X132246667Y-47063866D01*
X132246667Y-47063866D02*
X132246667Y-46825771D01*
X132246667Y-46825771D02*
X132294286Y-46635295D01*
X132294286Y-46635295D02*
X132341905Y-46540057D01*
X132341905Y-46540057D02*
X132389524Y-46492438D01*
X132389524Y-46492438D02*
X132484762Y-46444819D01*
X133818095Y-47444819D02*
X133484762Y-46968628D01*
X133246667Y-47444819D02*
X133246667Y-46444819D01*
X133246667Y-46444819D02*
X133627619Y-46444819D01*
X133627619Y-46444819D02*
X133722857Y-46492438D01*
X133722857Y-46492438D02*
X133770476Y-46540057D01*
X133770476Y-46540057D02*
X133818095Y-46635295D01*
X133818095Y-46635295D02*
X133818095Y-46778152D01*
X133818095Y-46778152D02*
X133770476Y-46873390D01*
X133770476Y-46873390D02*
X133722857Y-46921009D01*
X133722857Y-46921009D02*
X133627619Y-46968628D01*
X133627619Y-46968628D02*
X133246667Y-46968628D01*
X123778095Y-57744819D02*
X123778095Y-58554342D01*
X123778095Y-58554342D02*
X123825714Y-58649580D01*
X123825714Y-58649580D02*
X123873333Y-58697200D01*
X123873333Y-58697200D02*
X123968571Y-58744819D01*
X123968571Y-58744819D02*
X124159047Y-58744819D01*
X124159047Y-58744819D02*
X124254285Y-58697200D01*
X124254285Y-58697200D02*
X124301904Y-58649580D01*
X124301904Y-58649580D02*
X124349523Y-58554342D01*
X124349523Y-58554342D02*
X124349523Y-57744819D01*
X124778095Y-57840057D02*
X124825714Y-57792438D01*
X124825714Y-57792438D02*
X124920952Y-57744819D01*
X124920952Y-57744819D02*
X125159047Y-57744819D01*
X125159047Y-57744819D02*
X125254285Y-57792438D01*
X125254285Y-57792438D02*
X125301904Y-57840057D01*
X125301904Y-57840057D02*
X125349523Y-57935295D01*
X125349523Y-57935295D02*
X125349523Y-58030533D01*
X125349523Y-58030533D02*
X125301904Y-58173390D01*
X125301904Y-58173390D02*
X124730476Y-58744819D01*
X124730476Y-58744819D02*
X125349523Y-58744819D01*
X122706667Y-112214819D02*
X122706667Y-111214819D01*
X122706667Y-111214819D02*
X123040000Y-111929104D01*
X123040000Y-111929104D02*
X123373333Y-111214819D01*
X123373333Y-111214819D02*
X123373333Y-112214819D01*
X123849524Y-111691009D02*
X124182857Y-111691009D01*
X124325714Y-112214819D02*
X123849524Y-112214819D01*
X123849524Y-112214819D02*
X123849524Y-111214819D01*
X123849524Y-111214819D02*
X124325714Y-111214819D01*
X124754286Y-112214819D02*
X124754286Y-111214819D01*
X124754286Y-111214819D02*
X125087619Y-111929104D01*
X125087619Y-111929104D02*
X125420952Y-111214819D01*
X125420952Y-111214819D02*
X125420952Y-112214819D01*
X126420952Y-112214819D02*
X125849524Y-112214819D01*
X126135238Y-112214819D02*
X126135238Y-111214819D01*
X126135238Y-111214819D02*
X126040000Y-111357676D01*
X126040000Y-111357676D02*
X125944762Y-111452914D01*
X125944762Y-111452914D02*
X125849524Y-111500533D01*
X153471666Y-115024819D02*
X153471666Y-115739104D01*
X153471666Y-115739104D02*
X153424047Y-115881961D01*
X153424047Y-115881961D02*
X153328809Y-115977200D01*
X153328809Y-115977200D02*
X153185952Y-116024819D01*
X153185952Y-116024819D02*
X153090714Y-116024819D01*
X153947857Y-116024819D02*
X153947857Y-115024819D01*
X153947857Y-115024819D02*
X154328809Y-115024819D01*
X154328809Y-115024819D02*
X154424047Y-115072438D01*
X154424047Y-115072438D02*
X154471666Y-115120057D01*
X154471666Y-115120057D02*
X154519285Y-115215295D01*
X154519285Y-115215295D02*
X154519285Y-115358152D01*
X154519285Y-115358152D02*
X154471666Y-115453390D01*
X154471666Y-115453390D02*
X154424047Y-115501009D01*
X154424047Y-115501009D02*
X154328809Y-115548628D01*
X154328809Y-115548628D02*
X153947857Y-115548628D01*
X155471666Y-116024819D02*
X154900238Y-116024819D01*
X155185952Y-116024819D02*
X155185952Y-115024819D01*
X155185952Y-115024819D02*
X155090714Y-115167676D01*
X155090714Y-115167676D02*
X154995476Y-115262914D01*
X154995476Y-115262914D02*
X154900238Y-115310533D01*
X156186666Y-113484819D02*
X155853333Y-113008628D01*
X155615238Y-113484819D02*
X155615238Y-112484819D01*
X155615238Y-112484819D02*
X155996190Y-112484819D01*
X155996190Y-112484819D02*
X156091428Y-112532438D01*
X156091428Y-112532438D02*
X156139047Y-112580057D01*
X156139047Y-112580057D02*
X156186666Y-112675295D01*
X156186666Y-112675295D02*
X156186666Y-112818152D01*
X156186666Y-112818152D02*
X156139047Y-112913390D01*
X156139047Y-112913390D02*
X156091428Y-112961009D01*
X156091428Y-112961009D02*
X155996190Y-113008628D01*
X155996190Y-113008628D02*
X155615238Y-113008628D01*
X156805714Y-112484819D02*
X156996190Y-112484819D01*
X156996190Y-112484819D02*
X157091428Y-112532438D01*
X157091428Y-112532438D02*
X157186666Y-112627676D01*
X157186666Y-112627676D02*
X157234285Y-112818152D01*
X157234285Y-112818152D02*
X157234285Y-113151485D01*
X157234285Y-113151485D02*
X157186666Y-113341961D01*
X157186666Y-113341961D02*
X157091428Y-113437200D01*
X157091428Y-113437200D02*
X156996190Y-113484819D01*
X156996190Y-113484819D02*
X156805714Y-113484819D01*
X156805714Y-113484819D02*
X156710476Y-113437200D01*
X156710476Y-113437200D02*
X156615238Y-113341961D01*
X156615238Y-113341961D02*
X156567619Y-113151485D01*
X156567619Y-113151485D02*
X156567619Y-112818152D01*
X156567619Y-112818152D02*
X156615238Y-112627676D01*
X156615238Y-112627676D02*
X156710476Y-112532438D01*
X156710476Y-112532438D02*
X156805714Y-112484819D01*
X157662857Y-113484819D02*
X157662857Y-112484819D01*
X157662857Y-112484819D02*
X157996190Y-113199104D01*
X157996190Y-113199104D02*
X158329523Y-112484819D01*
X158329523Y-112484819D02*
X158329523Y-113484819D01*
X159472381Y-112818152D02*
X159710476Y-113484819D01*
X159710476Y-113484819D02*
X159948571Y-112818152D01*
X160281905Y-113437200D02*
X160377143Y-113484819D01*
X160377143Y-113484819D02*
X160567619Y-113484819D01*
X160567619Y-113484819D02*
X160662857Y-113437200D01*
X160662857Y-113437200D02*
X160710476Y-113341961D01*
X160710476Y-113341961D02*
X160710476Y-113294342D01*
X160710476Y-113294342D02*
X160662857Y-113199104D01*
X160662857Y-113199104D02*
X160567619Y-113151485D01*
X160567619Y-113151485D02*
X160424762Y-113151485D01*
X160424762Y-113151485D02*
X160329524Y-113103866D01*
X160329524Y-113103866D02*
X160281905Y-113008628D01*
X160281905Y-113008628D02*
X160281905Y-112961009D01*
X160281905Y-112961009D02*
X160329524Y-112865771D01*
X160329524Y-112865771D02*
X160424762Y-112818152D01*
X160424762Y-112818152D02*
X160567619Y-112818152D01*
X160567619Y-112818152D02*
X160662857Y-112865771D01*
X162472381Y-113484819D02*
X162139048Y-113008628D01*
X161900953Y-113484819D02*
X161900953Y-112484819D01*
X161900953Y-112484819D02*
X162281905Y-112484819D01*
X162281905Y-112484819D02*
X162377143Y-112532438D01*
X162377143Y-112532438D02*
X162424762Y-112580057D01*
X162424762Y-112580057D02*
X162472381Y-112675295D01*
X162472381Y-112675295D02*
X162472381Y-112818152D01*
X162472381Y-112818152D02*
X162424762Y-112913390D01*
X162424762Y-112913390D02*
X162377143Y-112961009D01*
X162377143Y-112961009D02*
X162281905Y-113008628D01*
X162281905Y-113008628D02*
X161900953Y-113008628D01*
X162853334Y-113199104D02*
X163329524Y-113199104D01*
X162758096Y-113484819D02*
X163091429Y-112484819D01*
X163091429Y-112484819D02*
X163424762Y-113484819D01*
X163758096Y-113484819D02*
X163758096Y-112484819D01*
X163758096Y-112484819D02*
X164091429Y-113199104D01*
X164091429Y-113199104D02*
X164424762Y-112484819D01*
X164424762Y-112484819D02*
X164424762Y-113484819D01*
X117943333Y-113389580D02*
X117895714Y-113437200D01*
X117895714Y-113437200D02*
X117752857Y-113484819D01*
X117752857Y-113484819D02*
X117657619Y-113484819D01*
X117657619Y-113484819D02*
X117514762Y-113437200D01*
X117514762Y-113437200D02*
X117419524Y-113341961D01*
X117419524Y-113341961D02*
X117371905Y-113246723D01*
X117371905Y-113246723D02*
X117324286Y-113056247D01*
X117324286Y-113056247D02*
X117324286Y-112913390D01*
X117324286Y-112913390D02*
X117371905Y-112722914D01*
X117371905Y-112722914D02*
X117419524Y-112627676D01*
X117419524Y-112627676D02*
X117514762Y-112532438D01*
X117514762Y-112532438D02*
X117657619Y-112484819D01*
X117657619Y-112484819D02*
X117752857Y-112484819D01*
X117752857Y-112484819D02*
X117895714Y-112532438D01*
X117895714Y-112532438D02*
X117943333Y-112580057D01*
X118324286Y-112580057D02*
X118371905Y-112532438D01*
X118371905Y-112532438D02*
X118467143Y-112484819D01*
X118467143Y-112484819D02*
X118705238Y-112484819D01*
X118705238Y-112484819D02*
X118800476Y-112532438D01*
X118800476Y-112532438D02*
X118848095Y-112580057D01*
X118848095Y-112580057D02*
X118895714Y-112675295D01*
X118895714Y-112675295D02*
X118895714Y-112770533D01*
X118895714Y-112770533D02*
X118848095Y-112913390D01*
X118848095Y-112913390D02*
X118276667Y-113484819D01*
X118276667Y-113484819D02*
X118895714Y-113484819D01*
X162393333Y-56239580D02*
X162345714Y-56287200D01*
X162345714Y-56287200D02*
X162202857Y-56334819D01*
X162202857Y-56334819D02*
X162107619Y-56334819D01*
X162107619Y-56334819D02*
X161964762Y-56287200D01*
X161964762Y-56287200D02*
X161869524Y-56191961D01*
X161869524Y-56191961D02*
X161821905Y-56096723D01*
X161821905Y-56096723D02*
X161774286Y-55906247D01*
X161774286Y-55906247D02*
X161774286Y-55763390D01*
X161774286Y-55763390D02*
X161821905Y-55572914D01*
X161821905Y-55572914D02*
X161869524Y-55477676D01*
X161869524Y-55477676D02*
X161964762Y-55382438D01*
X161964762Y-55382438D02*
X162107619Y-55334819D01*
X162107619Y-55334819D02*
X162202857Y-55334819D01*
X162202857Y-55334819D02*
X162345714Y-55382438D01*
X162345714Y-55382438D02*
X162393333Y-55430057D01*
X163250476Y-55668152D02*
X163250476Y-56334819D01*
X163012381Y-55287200D02*
X162774286Y-56001485D01*
X162774286Y-56001485D02*
X163393333Y-56001485D01*
X134453333Y-56239580D02*
X134405714Y-56287200D01*
X134405714Y-56287200D02*
X134262857Y-56334819D01*
X134262857Y-56334819D02*
X134167619Y-56334819D01*
X134167619Y-56334819D02*
X134024762Y-56287200D01*
X134024762Y-56287200D02*
X133929524Y-56191961D01*
X133929524Y-56191961D02*
X133881905Y-56096723D01*
X133881905Y-56096723D02*
X133834286Y-55906247D01*
X133834286Y-55906247D02*
X133834286Y-55763390D01*
X133834286Y-55763390D02*
X133881905Y-55572914D01*
X133881905Y-55572914D02*
X133929524Y-55477676D01*
X133929524Y-55477676D02*
X134024762Y-55382438D01*
X134024762Y-55382438D02*
X134167619Y-55334819D01*
X134167619Y-55334819D02*
X134262857Y-55334819D01*
X134262857Y-55334819D02*
X134405714Y-55382438D01*
X134405714Y-55382438D02*
X134453333Y-55430057D01*
X134786667Y-55334819D02*
X135405714Y-55334819D01*
X135405714Y-55334819D02*
X135072381Y-55715771D01*
X135072381Y-55715771D02*
X135215238Y-55715771D01*
X135215238Y-55715771D02*
X135310476Y-55763390D01*
X135310476Y-55763390D02*
X135358095Y-55811009D01*
X135358095Y-55811009D02*
X135405714Y-55906247D01*
X135405714Y-55906247D02*
X135405714Y-56144342D01*
X135405714Y-56144342D02*
X135358095Y-56239580D01*
X135358095Y-56239580D02*
X135310476Y-56287200D01*
X135310476Y-56287200D02*
X135215238Y-56334819D01*
X135215238Y-56334819D02*
X134929524Y-56334819D01*
X134929524Y-56334819D02*
X134834286Y-56287200D01*
X134834286Y-56287200D02*
X134786667Y-56239580D01*
X159853333Y-123644819D02*
X159520000Y-123168628D01*
X159281905Y-123644819D02*
X159281905Y-122644819D01*
X159281905Y-122644819D02*
X159662857Y-122644819D01*
X159662857Y-122644819D02*
X159758095Y-122692438D01*
X159758095Y-122692438D02*
X159805714Y-122740057D01*
X159805714Y-122740057D02*
X159853333Y-122835295D01*
X159853333Y-122835295D02*
X159853333Y-122978152D01*
X159853333Y-122978152D02*
X159805714Y-123073390D01*
X159805714Y-123073390D02*
X159758095Y-123121009D01*
X159758095Y-123121009D02*
X159662857Y-123168628D01*
X159662857Y-123168628D02*
X159281905Y-123168628D01*
X160805714Y-123644819D02*
X160234286Y-123644819D01*
X160520000Y-123644819D02*
X160520000Y-122644819D01*
X160520000Y-122644819D02*
X160424762Y-122787676D01*
X160424762Y-122787676D02*
X160329524Y-122882914D01*
X160329524Y-122882914D02*
X160234286Y-122930533D01*
X159329523Y-121104819D02*
X158758095Y-121104819D01*
X159043809Y-121104819D02*
X159043809Y-120104819D01*
X159043809Y-120104819D02*
X158948571Y-120247676D01*
X158948571Y-120247676D02*
X158853333Y-120342914D01*
X158853333Y-120342914D02*
X158758095Y-120390533D01*
X159948571Y-120104819D02*
X160043809Y-120104819D01*
X160043809Y-120104819D02*
X160139047Y-120152438D01*
X160139047Y-120152438D02*
X160186666Y-120200057D01*
X160186666Y-120200057D02*
X160234285Y-120295295D01*
X160234285Y-120295295D02*
X160281904Y-120485771D01*
X160281904Y-120485771D02*
X160281904Y-120723866D01*
X160281904Y-120723866D02*
X160234285Y-120914342D01*
X160234285Y-120914342D02*
X160186666Y-121009580D01*
X160186666Y-121009580D02*
X160139047Y-121057200D01*
X160139047Y-121057200D02*
X160043809Y-121104819D01*
X160043809Y-121104819D02*
X159948571Y-121104819D01*
X159948571Y-121104819D02*
X159853333Y-121057200D01*
X159853333Y-121057200D02*
X159805714Y-121009580D01*
X159805714Y-121009580D02*
X159758095Y-120914342D01*
X159758095Y-120914342D02*
X159710476Y-120723866D01*
X159710476Y-120723866D02*
X159710476Y-120485771D01*
X159710476Y-120485771D02*
X159758095Y-120295295D01*
X159758095Y-120295295D02*
X159805714Y-120200057D01*
X159805714Y-120200057D02*
X159853333Y-120152438D01*
X159853333Y-120152438D02*
X159948571Y-120104819D01*
X160710476Y-121104819D02*
X160710476Y-120104819D01*
X161281904Y-121104819D02*
X160853333Y-120533390D01*
X161281904Y-120104819D02*
X160710476Y-120676247D01*
D11*
X154960000Y-48535000D02*
X154960000Y-45445000D01*
X149410000Y-46989952D02*
G75*
G02*
X154960000Y-45445170I2990000J-48D01*
G01*
X154960000Y-48534830D02*
G75*
G02*
X149410000Y-46990048I-2560000J1544830D01*
G01*
X154900000Y-46990000D02*
G75*
G02*
X149900000Y-46990000I-2500000J0D01*
G01*
X149900000Y-46990000D02*
G75*
G02*
X154900000Y-46990000I2500000J0D01*
G01*
X125630000Y-117990000D02*
X125630000Y-123230000D01*
X125945000Y-117990000D02*
X125630000Y-117990000D01*
X125945000Y-123230000D02*
X125630000Y-123230000D01*
X128370000Y-117990000D02*
X128055000Y-117990000D01*
X128370000Y-117990000D02*
X128370000Y-123230000D01*
X128370000Y-123230000D02*
X128055000Y-123230000D01*
X139830000Y-71120000D02*
X139830000Y-68580000D01*
X140850000Y-59190000D02*
X140850000Y-61050000D01*
X140850000Y-65950000D02*
X140850000Y-109790000D01*
X140850000Y-109790000D02*
X163950000Y-109790000D01*
X143130000Y-59190000D02*
X143130000Y-61450000D01*
X163950000Y-59190000D02*
X140850000Y-59190000D01*
X163950000Y-109790000D02*
X163950000Y-59190000D01*
X142480000Y-63500000D02*
G75*
G02*
X140680000Y-63500000I-900000J0D01*
G01*
X140680000Y-63500000D02*
G75*
G02*
X142480000Y-63500000I900000J0D01*
G01*
X144130000Y-63500000D02*
G75*
G02*
X139030000Y-63500000I-2550000J0D01*
G01*
X139030000Y-63500000D02*
G75*
G02*
X144130000Y-63500000I2550000J0D01*
G01*
X130750000Y-119270000D02*
X130750000Y-120920000D01*
X130750000Y-122920000D02*
X130750000Y-124570000D01*
X130750000Y-124570000D02*
X151190000Y-124570000D01*
X151190000Y-119270000D02*
X130750000Y-119270000D01*
X151190000Y-124570000D02*
X151190000Y-119270000D01*
X130750000Y-120920000D02*
G75*
G02*
X130750000Y-122920000I0J-1000000D01*
G01*
X128040000Y-46990000D02*
X128810000Y-46990000D01*
X128810000Y-45620000D02*
X128810000Y-48360000D01*
X128810000Y-48360000D02*
X135350000Y-48360000D01*
X135350000Y-45620000D02*
X128810000Y-45620000D01*
X135350000Y-48360000D02*
X135350000Y-45620000D01*
X136120000Y-46990000D02*
X135350000Y-46990000D01*
X111970000Y-71120000D02*
X111970000Y-68580000D01*
X112990000Y-59190000D02*
X112990000Y-61050000D01*
X112990000Y-65950000D02*
X112990000Y-109790000D01*
X112990000Y-109790000D02*
X136090000Y-109790000D01*
X115270000Y-59190000D02*
X115270000Y-61450000D01*
X136090000Y-59190000D02*
X112990000Y-59190000D01*
X136090000Y-109790000D02*
X136090000Y-59190000D01*
X114620000Y-63500000D02*
G75*
G02*
X112820000Y-63500000I-900000J0D01*
G01*
X112820000Y-63500000D02*
G75*
G02*
X114620000Y-63500000I900000J0D01*
G01*
X116270000Y-63500000D02*
G75*
G02*
X111170000Y-63500000I-2550000J0D01*
G01*
X111170000Y-63500000D02*
G75*
G02*
X116270000Y-63500000I2550000J0D01*
G01*
X156150000Y-116900000D02*
X156150000Y-115570000D01*
X157480000Y-116900000D02*
X156150000Y-116900000D01*
X158750000Y-114240000D02*
X163890000Y-114240000D01*
X158750000Y-116900000D02*
X158750000Y-114240000D01*
X158750000Y-116900000D02*
X163890000Y-116900000D01*
X163890000Y-116900000D02*
X163890000Y-114240000D01*
X111079000Y-115972000D02*
X111079000Y-115168000D01*
X111119000Y-116203000D02*
X111119000Y-114937000D01*
X111159000Y-116372000D02*
X111159000Y-114768000D01*
X111199000Y-116510000D02*
X111199000Y-114630000D01*
X111239000Y-116629000D02*
X111239000Y-114511000D01*
X111279000Y-116735000D02*
X111279000Y-114405000D01*
X111319000Y-116832000D02*
X111319000Y-114308000D01*
X111359000Y-116920000D02*
X111359000Y-114220000D01*
X111399000Y-117002000D02*
X111399000Y-114138000D01*
X111439000Y-117079000D02*
X111439000Y-114061000D01*
X111479000Y-117151000D02*
X111479000Y-113989000D01*
X111519000Y-117220000D02*
X111519000Y-113920000D01*
X111559000Y-117284000D02*
X111559000Y-113856000D01*
X111599000Y-117346000D02*
X111599000Y-113794000D01*
X111639000Y-117404000D02*
X111639000Y-113736000D01*
X111679000Y-117460000D02*
X111679000Y-113680000D01*
X111719000Y-117514000D02*
X111719000Y-113626000D01*
X111759000Y-117565000D02*
X111759000Y-113575000D01*
X111799000Y-117614000D02*
X111799000Y-113526000D01*
X111839000Y-117662000D02*
X111839000Y-113478000D01*
X111879000Y-117707000D02*
X111879000Y-113433000D01*
X111919000Y-117752000D02*
X111919000Y-113388000D01*
X111959000Y-117794000D02*
X111959000Y-113346000D01*
X111999000Y-117835000D02*
X111999000Y-113305000D01*
X112039000Y-114530000D02*
X112039000Y-113265000D01*
X112039000Y-117875000D02*
X112039000Y-116610000D01*
X112079000Y-114530000D02*
X112079000Y-113227000D01*
X112079000Y-117913000D02*
X112079000Y-116610000D01*
X112119000Y-114530000D02*
X112119000Y-113190000D01*
X112119000Y-117950000D02*
X112119000Y-116610000D01*
X112159000Y-114530000D02*
X112159000Y-113154000D01*
X112159000Y-117986000D02*
X112159000Y-116610000D01*
X112199000Y-114530000D02*
X112199000Y-113120000D01*
X112199000Y-118020000D02*
X112199000Y-116610000D01*
X112239000Y-114530000D02*
X112239000Y-113086000D01*
X112239000Y-118054000D02*
X112239000Y-116610000D01*
X112279000Y-114530000D02*
X112279000Y-113054000D01*
X112279000Y-118086000D02*
X112279000Y-116610000D01*
X112319000Y-114530000D02*
X112319000Y-113022000D01*
X112319000Y-118118000D02*
X112319000Y-116610000D01*
X112359000Y-114530000D02*
X112359000Y-112992000D01*
X112359000Y-118148000D02*
X112359000Y-116610000D01*
X112399000Y-114530000D02*
X112399000Y-112963000D01*
X112399000Y-118177000D02*
X112399000Y-116610000D01*
X112439000Y-114530000D02*
X112439000Y-112934000D01*
X112439000Y-118206000D02*
X112439000Y-116610000D01*
X112479000Y-114530000D02*
X112479000Y-112906000D01*
X112479000Y-118234000D02*
X112479000Y-116610000D01*
X112519000Y-114530000D02*
X112519000Y-112880000D01*
X112519000Y-118260000D02*
X112519000Y-116610000D01*
X112559000Y-114530000D02*
X112559000Y-112854000D01*
X112559000Y-118286000D02*
X112559000Y-116610000D01*
X112599000Y-114530000D02*
X112599000Y-112828000D01*
X112599000Y-118312000D02*
X112599000Y-116610000D01*
X112639000Y-114530000D02*
X112639000Y-112804000D01*
X112639000Y-118336000D02*
X112639000Y-116610000D01*
X112679000Y-114530000D02*
X112679000Y-112780000D01*
X112679000Y-118360000D02*
X112679000Y-116610000D01*
X112719000Y-114530000D02*
X112719000Y-112758000D01*
X112719000Y-118382000D02*
X112719000Y-116610000D01*
X112759000Y-114530000D02*
X112759000Y-112736000D01*
X112759000Y-118404000D02*
X112759000Y-116610000D01*
X112799000Y-114530000D02*
X112799000Y-112714000D01*
X112799000Y-118426000D02*
X112799000Y-116610000D01*
X112839000Y-114530000D02*
X112839000Y-112694000D01*
X112839000Y-118446000D02*
X112839000Y-116610000D01*
X112879000Y-114530000D02*
X112879000Y-112674000D01*
X112879000Y-118466000D02*
X112879000Y-116610000D01*
X112919000Y-114530000D02*
X112919000Y-112654000D01*
X112919000Y-118486000D02*
X112919000Y-116610000D01*
X112959000Y-114530000D02*
X112959000Y-112636000D01*
X112959000Y-118504000D02*
X112959000Y-116610000D01*
X112999000Y-114530000D02*
X112999000Y-112618000D01*
X112999000Y-118522000D02*
X112999000Y-116610000D01*
X113039000Y-114530000D02*
X113039000Y-112600000D01*
X113039000Y-118540000D02*
X113039000Y-116610000D01*
X113079000Y-114530000D02*
X113079000Y-112584000D01*
X113079000Y-118556000D02*
X113079000Y-116610000D01*
X113119000Y-114530000D02*
X113119000Y-112568000D01*
X113119000Y-118572000D02*
X113119000Y-116610000D01*
X113159000Y-114530000D02*
X113159000Y-112552000D01*
X113159000Y-118588000D02*
X113159000Y-116610000D01*
X113199000Y-114530000D02*
X113199000Y-112537000D01*
X113199000Y-118603000D02*
X113199000Y-116610000D01*
X113239000Y-114530000D02*
X113239000Y-112523000D01*
X113239000Y-118617000D02*
X113239000Y-116610000D01*
X113279000Y-114530000D02*
X113279000Y-112509000D01*
X113279000Y-118631000D02*
X113279000Y-116610000D01*
X113319000Y-114530000D02*
X113319000Y-112496000D01*
X113319000Y-118644000D02*
X113319000Y-116610000D01*
X113359000Y-114530000D02*
X113359000Y-112484000D01*
X113359000Y-118656000D02*
X113359000Y-116610000D01*
X113399000Y-114530000D02*
X113399000Y-112472000D01*
X113399000Y-118668000D02*
X113399000Y-116610000D01*
X113439000Y-114530000D02*
X113439000Y-112460000D01*
X113439000Y-118680000D02*
X113439000Y-116610000D01*
X113479000Y-114530000D02*
X113479000Y-112449000D01*
X113479000Y-118691000D02*
X113479000Y-116610000D01*
X113519000Y-114530000D02*
X113519000Y-112439000D01*
X113519000Y-118701000D02*
X113519000Y-116610000D01*
X113559000Y-114530000D02*
X113559000Y-112429000D01*
X113559000Y-118711000D02*
X113559000Y-116610000D01*
X113599000Y-114530000D02*
X113599000Y-112420000D01*
X113599000Y-118720000D02*
X113599000Y-116610000D01*
X113640000Y-114530000D02*
X113640000Y-112411000D01*
X113640000Y-118729000D02*
X113640000Y-116610000D01*
X113680000Y-114530000D02*
X113680000Y-112403000D01*
X113680000Y-118737000D02*
X113680000Y-116610000D01*
X113720000Y-114530000D02*
X113720000Y-112395000D01*
X113720000Y-118745000D02*
X113720000Y-116610000D01*
X113760000Y-114530000D02*
X113760000Y-112388000D01*
X113760000Y-118752000D02*
X113760000Y-116610000D01*
X113800000Y-114530000D02*
X113800000Y-112381000D01*
X113800000Y-118759000D02*
X113800000Y-116610000D01*
X113840000Y-114530000D02*
X113840000Y-112375000D01*
X113840000Y-118765000D02*
X113840000Y-116610000D01*
X113880000Y-114530000D02*
X113880000Y-112369000D01*
X113880000Y-118771000D02*
X113880000Y-116610000D01*
X113920000Y-114530000D02*
X113920000Y-112364000D01*
X113920000Y-118776000D02*
X113920000Y-116610000D01*
X113960000Y-114530000D02*
X113960000Y-112359000D01*
X113960000Y-118781000D02*
X113960000Y-116610000D01*
X114000000Y-114530000D02*
X114000000Y-112355000D01*
X114000000Y-118785000D02*
X114000000Y-116610000D01*
X114040000Y-114530000D02*
X114040000Y-112352000D01*
X114040000Y-118788000D02*
X114040000Y-116610000D01*
X114080000Y-114530000D02*
X114080000Y-112348000D01*
X114080000Y-118792000D02*
X114080000Y-116610000D01*
X114120000Y-118794000D02*
X114120000Y-112346000D01*
X114160000Y-118797000D02*
X114160000Y-112343000D01*
X114200000Y-118798000D02*
X114200000Y-112342000D01*
X114240000Y-118800000D02*
X114240000Y-112340000D01*
X114280000Y-118800000D02*
X114280000Y-112340000D01*
X114320000Y-118800000D02*
X114320000Y-112340000D01*
X117505241Y-117724000D02*
X117505241Y-117094000D01*
X117820241Y-117409000D02*
X117190241Y-117409000D01*
X117590000Y-115570000D02*
G75*
G02*
X111050000Y-115570000I-3270000J0D01*
G01*
X111050000Y-115570000D02*
G75*
G02*
X117590000Y-115570000I3270000J0D01*
G01*
X154820000Y-54825000D02*
X154820000Y-54510000D01*
X154820000Y-57250000D02*
X154820000Y-56935000D01*
X160060000Y-54510000D02*
X154820000Y-54510000D01*
X160060000Y-54825000D02*
X160060000Y-54510000D01*
X160060000Y-57250000D02*
X154820000Y-57250000D01*
X160060000Y-57250000D02*
X160060000Y-56935000D01*
X126960000Y-54825000D02*
X126960000Y-54510000D01*
X126960000Y-57250000D02*
X126960000Y-56935000D01*
X132200000Y-54510000D02*
X126960000Y-54510000D01*
X132200000Y-54825000D02*
X132200000Y-54510000D01*
X132200000Y-57250000D02*
X126960000Y-57250000D01*
X132200000Y-57250000D02*
X132200000Y-56935000D01*
X155980000Y-120650000D02*
X156750000Y-120650000D01*
X156750000Y-119280000D02*
X156750000Y-122020000D01*
X156750000Y-122020000D02*
X163290000Y-122020000D01*
X163290000Y-119280000D02*
X156750000Y-119280000D01*
X163290000Y-122020000D02*
X163290000Y-119280000D01*
X164060000Y-120650000D02*
X163290000Y-120650000D01*
M02*
