M48
INCH,TZ
T1C0.0118
T2C0.0315
T3C0.0354
T4C0.0394
%
G90
G05
T1
X42101Y-34723
X42260Y-41785
X42538Y-38244
X43838Y-30745
X44854Y-31858
X44882Y-30693
X45114Y-35202
X45314Y-43291
X45519Y-41918
X45765Y-42664
X46624Y-35593
X46873Y-32760
X47870Y-41089
X49387Y-35642
X50035Y-34131
X50150Y-36018
X50391Y-33019
T2
X44516Y-45500
X45500Y-45500
X50000Y-18500
X50000Y-46500
X50000Y-48469
X50031Y-22000
X52000Y-22000
X52000Y-46500
X52000Y-49500
X53000Y-46500
X53000Y-49500
X54000Y-18500
X54000Y-46500
X54000Y-49500
X55000Y-46500
X55000Y-49500
X56000Y-46500
X56000Y-49500
X57000Y-46500
X57000Y-49500
X58000Y-46500
X58000Y-49500
X59000Y-46500
X59000Y-49500
X61000Y-22000
X61000Y-47500
X62969Y-22000
X65000Y-47500
T3
X59500Y-18500
X60500Y-18500
T4
X39500Y-22500
X39500Y-23500
X39500Y-24500
X39500Y-25500
X39500Y-26500
X39500Y-27500
X39500Y-28500
X39500Y-29500
X39500Y-30500
X39500Y-31500
X39500Y-32500
X39500Y-33500
X39500Y-34500
X39500Y-35500
X39500Y-36500
X39500Y-37500
X39500Y-38500
X39500Y-39500
X39500Y-40500
X39500Y-41500
X39500Y-42500
X39500Y-43500
X39500Y-44500
X39500Y-45500
X39500Y-46500
X41500Y-22500
X41500Y-23500
X41500Y-24500
X41500Y-25500
X41500Y-26500
X41500Y-27500
X41500Y-28500
X41500Y-29500
X41500Y-30500
X41500Y-31500
X41500Y-32500
X41500Y-33500
X41500Y-34500
X41500Y-35500
X41500Y-36500
X41500Y-37500
X41500Y-38500
X41500Y-39500
X41500Y-40500
X41500Y-41500
X41500Y-42500
X41500Y-43500
X41500Y-44500
X41500Y-45500
X41500Y-46500
X46031Y-27500
X46031Y-28500
X46031Y-29500
X46031Y-30500
X46031Y-31500
X46031Y-32500
X46031Y-33500
X46031Y-34500
X46031Y-35500
X46031Y-36500
X46031Y-37500
X46031Y-38500
X46031Y-39500
X46031Y-40500
X52031Y-27500
X52031Y-28500
X52031Y-29500
X52031Y-30500
X52031Y-31500
X52031Y-32500
X52031Y-33500
X52031Y-34500
X52031Y-35500
X52031Y-36500
X52031Y-37500
X52031Y-38500
X52031Y-39500
X52031Y-40500
X57000Y-27500
X57000Y-28500
X57000Y-29500
X57000Y-30500
X57000Y-31500
X57000Y-32500
X57000Y-33500
X57000Y-34500
X57000Y-35500
X57000Y-36500
X57000Y-37500
X57000Y-38500
X57000Y-39500
X57000Y-40500
X62000Y-45500
X63000Y-27500
X63000Y-28500
X63000Y-29500
X63000Y-30500
X63000Y-31500
X63000Y-32500
X63000Y-33500
X63000Y-34500
X63000Y-35500
X63000Y-36500
X63000Y-37500
X63000Y-38500
X63000Y-39500
X63000Y-40500
X63000Y-45500
X64000Y-45500
M30
