G04 #@! TF.GenerationSoftware,KiCad,Pcbnew,8.0.9-8.0.9-0~ubuntu22.04.1*
G04 #@! TF.CreationDate,2025-06-29T10:23:49+10:00*
G04 #@! TF.ProjectId,Memory_Expansion_Cartridge,4d656d6f-7279-45f4-9578-70616e73696f,rev?*
G04 #@! TF.SameCoordinates,Original*
G04 #@! TF.FileFunction,Legend,Bot*
G04 #@! TF.FilePolarity,Positive*
%FSLAX46Y46*%
G04 Gerber Fmt 4.6, Leading zero omitted, Abs format (unit mm)*
G04 Created by KiCad (PCBNEW 8.0.9-8.0.9-0~ubuntu22.04.1) date 2025-06-29 10:23:49*
%MOMM*%
%LPD*%
G01*
G04 APERTURE LIST*
%ADD10C,0.300000*%
%ADD11C,0.100000*%
%ADD12C,0.120000*%
G04 APERTURE END LIST*
D10*
X150984484Y-68911430D02*
X151055912Y-69125716D01*
X151055912Y-69125716D02*
X151055912Y-69482858D01*
X151055912Y-69482858D02*
X150984484Y-69625716D01*
X150984484Y-69625716D02*
X150913055Y-69697144D01*
X150913055Y-69697144D02*
X150770198Y-69768573D01*
X150770198Y-69768573D02*
X150627341Y-69768573D01*
X150627341Y-69768573D02*
X150484484Y-69697144D01*
X150484484Y-69697144D02*
X150413055Y-69625716D01*
X150413055Y-69625716D02*
X150341626Y-69482858D01*
X150341626Y-69482858D02*
X150270198Y-69197144D01*
X150270198Y-69197144D02*
X150198769Y-69054287D01*
X150198769Y-69054287D02*
X150127341Y-68982858D01*
X150127341Y-68982858D02*
X149984484Y-68911430D01*
X149984484Y-68911430D02*
X149841626Y-68911430D01*
X149841626Y-68911430D02*
X149698769Y-68982858D01*
X149698769Y-68982858D02*
X149627341Y-69054287D01*
X149627341Y-69054287D02*
X149555912Y-69197144D01*
X149555912Y-69197144D02*
X149555912Y-69554287D01*
X149555912Y-69554287D02*
X149627341Y-69768573D01*
X150055912Y-70268572D02*
X151055912Y-70625715D01*
X150055912Y-70982858D02*
X151055912Y-70625715D01*
X151055912Y-70625715D02*
X151413055Y-70482858D01*
X151413055Y-70482858D02*
X151484484Y-70411429D01*
X151484484Y-70411429D02*
X151555912Y-70268572D01*
X150984484Y-71482858D02*
X151055912Y-71625715D01*
X151055912Y-71625715D02*
X151055912Y-71911429D01*
X151055912Y-71911429D02*
X150984484Y-72054286D01*
X150984484Y-72054286D02*
X150841626Y-72125715D01*
X150841626Y-72125715D02*
X150770198Y-72125715D01*
X150770198Y-72125715D02*
X150627341Y-72054286D01*
X150627341Y-72054286D02*
X150555912Y-71911429D01*
X150555912Y-71911429D02*
X150555912Y-71697144D01*
X150555912Y-71697144D02*
X150484484Y-71554286D01*
X150484484Y-71554286D02*
X150341626Y-71482858D01*
X150341626Y-71482858D02*
X150270198Y-71482858D01*
X150270198Y-71482858D02*
X150127341Y-71554286D01*
X150127341Y-71554286D02*
X150055912Y-71697144D01*
X150055912Y-71697144D02*
X150055912Y-71911429D01*
X150055912Y-71911429D02*
X150127341Y-72054286D01*
X150055912Y-72554287D02*
X150055912Y-73125715D01*
X149555912Y-72768572D02*
X150841626Y-72768572D01*
X150841626Y-72768572D02*
X150984484Y-72840001D01*
X150984484Y-72840001D02*
X151055912Y-72982858D01*
X151055912Y-72982858D02*
X151055912Y-73125715D01*
X150984484Y-74197144D02*
X151055912Y-74054287D01*
X151055912Y-74054287D02*
X151055912Y-73768573D01*
X151055912Y-73768573D02*
X150984484Y-73625715D01*
X150984484Y-73625715D02*
X150841626Y-73554287D01*
X150841626Y-73554287D02*
X150270198Y-73554287D01*
X150270198Y-73554287D02*
X150127341Y-73625715D01*
X150127341Y-73625715D02*
X150055912Y-73768573D01*
X150055912Y-73768573D02*
X150055912Y-74054287D01*
X150055912Y-74054287D02*
X150127341Y-74197144D01*
X150127341Y-74197144D02*
X150270198Y-74268573D01*
X150270198Y-74268573D02*
X150413055Y-74268573D01*
X150413055Y-74268573D02*
X150555912Y-73554287D01*
X151055912Y-74911429D02*
X150055912Y-74911429D01*
X150198769Y-74911429D02*
X150127341Y-74982858D01*
X150127341Y-74982858D02*
X150055912Y-75125715D01*
X150055912Y-75125715D02*
X150055912Y-75340001D01*
X150055912Y-75340001D02*
X150127341Y-75482858D01*
X150127341Y-75482858D02*
X150270198Y-75554287D01*
X150270198Y-75554287D02*
X151055912Y-75554287D01*
X150270198Y-75554287D02*
X150127341Y-75625715D01*
X150127341Y-75625715D02*
X150055912Y-75768572D01*
X150055912Y-75768572D02*
X150055912Y-75982858D01*
X150055912Y-75982858D02*
X150127341Y-76125715D01*
X150127341Y-76125715D02*
X150270198Y-76197144D01*
X150270198Y-76197144D02*
X151055912Y-76197144D01*
X150198769Y-78268572D02*
X150127341Y-78125715D01*
X150127341Y-78125715D02*
X150055912Y-78054286D01*
X150055912Y-78054286D02*
X149913055Y-77982858D01*
X149913055Y-77982858D02*
X149841626Y-77982858D01*
X149841626Y-77982858D02*
X149698769Y-78054286D01*
X149698769Y-78054286D02*
X149627341Y-78125715D01*
X149627341Y-78125715D02*
X149555912Y-78268572D01*
X149555912Y-78268572D02*
X149555912Y-78554286D01*
X149555912Y-78554286D02*
X149627341Y-78697144D01*
X149627341Y-78697144D02*
X149698769Y-78768572D01*
X149698769Y-78768572D02*
X149841626Y-78840001D01*
X149841626Y-78840001D02*
X149913055Y-78840001D01*
X149913055Y-78840001D02*
X150055912Y-78768572D01*
X150055912Y-78768572D02*
X150127341Y-78697144D01*
X150127341Y-78697144D02*
X150198769Y-78554286D01*
X150198769Y-78554286D02*
X150198769Y-78268572D01*
X150198769Y-78268572D02*
X150270198Y-78125715D01*
X150270198Y-78125715D02*
X150341626Y-78054286D01*
X150341626Y-78054286D02*
X150484484Y-77982858D01*
X150484484Y-77982858D02*
X150770198Y-77982858D01*
X150770198Y-77982858D02*
X150913055Y-78054286D01*
X150913055Y-78054286D02*
X150984484Y-78125715D01*
X150984484Y-78125715D02*
X151055912Y-78268572D01*
X151055912Y-78268572D02*
X151055912Y-78554286D01*
X151055912Y-78554286D02*
X150984484Y-78697144D01*
X150984484Y-78697144D02*
X150913055Y-78768572D01*
X150913055Y-78768572D02*
X150770198Y-78840001D01*
X150770198Y-78840001D02*
X150484484Y-78840001D01*
X150484484Y-78840001D02*
X150341626Y-78768572D01*
X150341626Y-78768572D02*
X150270198Y-78697144D01*
X150270198Y-78697144D02*
X150198769Y-78554286D01*
X149555912Y-79768572D02*
X149555912Y-79911429D01*
X149555912Y-79911429D02*
X149627341Y-80054286D01*
X149627341Y-80054286D02*
X149698769Y-80125715D01*
X149698769Y-80125715D02*
X149841626Y-80197143D01*
X149841626Y-80197143D02*
X150127341Y-80268572D01*
X150127341Y-80268572D02*
X150484484Y-80268572D01*
X150484484Y-80268572D02*
X150770198Y-80197143D01*
X150770198Y-80197143D02*
X150913055Y-80125715D01*
X150913055Y-80125715D02*
X150984484Y-80054286D01*
X150984484Y-80054286D02*
X151055912Y-79911429D01*
X151055912Y-79911429D02*
X151055912Y-79768572D01*
X151055912Y-79768572D02*
X150984484Y-79625715D01*
X150984484Y-79625715D02*
X150913055Y-79554286D01*
X150913055Y-79554286D02*
X150770198Y-79482857D01*
X150770198Y-79482857D02*
X150484484Y-79411429D01*
X150484484Y-79411429D02*
X150127341Y-79411429D01*
X150127341Y-79411429D02*
X149841626Y-79482857D01*
X149841626Y-79482857D02*
X149698769Y-79554286D01*
X149698769Y-79554286D02*
X149627341Y-79625715D01*
X149627341Y-79625715D02*
X149555912Y-79768572D01*
X151055912Y-82054285D02*
X149555912Y-82054285D01*
X149555912Y-82054285D02*
X150627341Y-82554285D01*
X150627341Y-82554285D02*
X149555912Y-83054285D01*
X149555912Y-83054285D02*
X151055912Y-83054285D01*
X150984484Y-84340000D02*
X151055912Y-84197143D01*
X151055912Y-84197143D02*
X151055912Y-83911429D01*
X151055912Y-83911429D02*
X150984484Y-83768571D01*
X150984484Y-83768571D02*
X150841626Y-83697143D01*
X150841626Y-83697143D02*
X150270198Y-83697143D01*
X150270198Y-83697143D02*
X150127341Y-83768571D01*
X150127341Y-83768571D02*
X150055912Y-83911429D01*
X150055912Y-83911429D02*
X150055912Y-84197143D01*
X150055912Y-84197143D02*
X150127341Y-84340000D01*
X150127341Y-84340000D02*
X150270198Y-84411429D01*
X150270198Y-84411429D02*
X150413055Y-84411429D01*
X150413055Y-84411429D02*
X150555912Y-83697143D01*
X151055912Y-85054285D02*
X150055912Y-85054285D01*
X150198769Y-85054285D02*
X150127341Y-85125714D01*
X150127341Y-85125714D02*
X150055912Y-85268571D01*
X150055912Y-85268571D02*
X150055912Y-85482857D01*
X150055912Y-85482857D02*
X150127341Y-85625714D01*
X150127341Y-85625714D02*
X150270198Y-85697143D01*
X150270198Y-85697143D02*
X151055912Y-85697143D01*
X150270198Y-85697143D02*
X150127341Y-85768571D01*
X150127341Y-85768571D02*
X150055912Y-85911428D01*
X150055912Y-85911428D02*
X150055912Y-86125714D01*
X150055912Y-86125714D02*
X150127341Y-86268571D01*
X150127341Y-86268571D02*
X150270198Y-86340000D01*
X150270198Y-86340000D02*
X151055912Y-86340000D01*
X151055912Y-87268571D02*
X150984484Y-87125714D01*
X150984484Y-87125714D02*
X150913055Y-87054285D01*
X150913055Y-87054285D02*
X150770198Y-86982857D01*
X150770198Y-86982857D02*
X150341626Y-86982857D01*
X150341626Y-86982857D02*
X150198769Y-87054285D01*
X150198769Y-87054285D02*
X150127341Y-87125714D01*
X150127341Y-87125714D02*
X150055912Y-87268571D01*
X150055912Y-87268571D02*
X150055912Y-87482857D01*
X150055912Y-87482857D02*
X150127341Y-87625714D01*
X150127341Y-87625714D02*
X150198769Y-87697143D01*
X150198769Y-87697143D02*
X150341626Y-87768571D01*
X150341626Y-87768571D02*
X150770198Y-87768571D01*
X150770198Y-87768571D02*
X150913055Y-87697143D01*
X150913055Y-87697143D02*
X150984484Y-87625714D01*
X150984484Y-87625714D02*
X151055912Y-87482857D01*
X151055912Y-87482857D02*
X151055912Y-87268571D01*
X151055912Y-88411428D02*
X150055912Y-88411428D01*
X150341626Y-88411428D02*
X150198769Y-88482857D01*
X150198769Y-88482857D02*
X150127341Y-88554286D01*
X150127341Y-88554286D02*
X150055912Y-88697143D01*
X150055912Y-88697143D02*
X150055912Y-88840000D01*
X150055912Y-89197142D02*
X151055912Y-89554285D01*
X150055912Y-89911428D02*
X151055912Y-89554285D01*
X151055912Y-89554285D02*
X151413055Y-89411428D01*
X151413055Y-89411428D02*
X151484484Y-89339999D01*
X151484484Y-89339999D02*
X151555912Y-89197142D01*
X150913055Y-92482856D02*
X150984484Y-92411428D01*
X150984484Y-92411428D02*
X151055912Y-92197142D01*
X151055912Y-92197142D02*
X151055912Y-92054285D01*
X151055912Y-92054285D02*
X150984484Y-91839999D01*
X150984484Y-91839999D02*
X150841626Y-91697142D01*
X150841626Y-91697142D02*
X150698769Y-91625713D01*
X150698769Y-91625713D02*
X150413055Y-91554285D01*
X150413055Y-91554285D02*
X150198769Y-91554285D01*
X150198769Y-91554285D02*
X149913055Y-91625713D01*
X149913055Y-91625713D02*
X149770198Y-91697142D01*
X149770198Y-91697142D02*
X149627341Y-91839999D01*
X149627341Y-91839999D02*
X149555912Y-92054285D01*
X149555912Y-92054285D02*
X149555912Y-92197142D01*
X149555912Y-92197142D02*
X149627341Y-92411428D01*
X149627341Y-92411428D02*
X149698769Y-92482856D01*
X151055912Y-93768571D02*
X150270198Y-93768571D01*
X150270198Y-93768571D02*
X150127341Y-93697142D01*
X150127341Y-93697142D02*
X150055912Y-93554285D01*
X150055912Y-93554285D02*
X150055912Y-93268571D01*
X150055912Y-93268571D02*
X150127341Y-93125713D01*
X150984484Y-93768571D02*
X151055912Y-93625713D01*
X151055912Y-93625713D02*
X151055912Y-93268571D01*
X151055912Y-93268571D02*
X150984484Y-93125713D01*
X150984484Y-93125713D02*
X150841626Y-93054285D01*
X150841626Y-93054285D02*
X150698769Y-93054285D01*
X150698769Y-93054285D02*
X150555912Y-93125713D01*
X150555912Y-93125713D02*
X150484484Y-93268571D01*
X150484484Y-93268571D02*
X150484484Y-93625713D01*
X150484484Y-93625713D02*
X150413055Y-93768571D01*
X151055912Y-94482856D02*
X150055912Y-94482856D01*
X150341626Y-94482856D02*
X150198769Y-94554285D01*
X150198769Y-94554285D02*
X150127341Y-94625714D01*
X150127341Y-94625714D02*
X150055912Y-94768571D01*
X150055912Y-94768571D02*
X150055912Y-94911428D01*
X150055912Y-95197142D02*
X150055912Y-95768570D01*
X149555912Y-95411427D02*
X150841626Y-95411427D01*
X150841626Y-95411427D02*
X150984484Y-95482856D01*
X150984484Y-95482856D02*
X151055912Y-95625713D01*
X151055912Y-95625713D02*
X151055912Y-95768570D01*
X151055912Y-96268570D02*
X150055912Y-96268570D01*
X150341626Y-96268570D02*
X150198769Y-96339999D01*
X150198769Y-96339999D02*
X150127341Y-96411428D01*
X150127341Y-96411428D02*
X150055912Y-96554285D01*
X150055912Y-96554285D02*
X150055912Y-96697142D01*
X151055912Y-97197141D02*
X150055912Y-97197141D01*
X149555912Y-97197141D02*
X149627341Y-97125713D01*
X149627341Y-97125713D02*
X149698769Y-97197141D01*
X149698769Y-97197141D02*
X149627341Y-97268570D01*
X149627341Y-97268570D02*
X149555912Y-97197141D01*
X149555912Y-97197141D02*
X149698769Y-97197141D01*
X151055912Y-98554285D02*
X149555912Y-98554285D01*
X150984484Y-98554285D02*
X151055912Y-98411427D01*
X151055912Y-98411427D02*
X151055912Y-98125713D01*
X151055912Y-98125713D02*
X150984484Y-97982856D01*
X150984484Y-97982856D02*
X150913055Y-97911427D01*
X150913055Y-97911427D02*
X150770198Y-97839999D01*
X150770198Y-97839999D02*
X150341626Y-97839999D01*
X150341626Y-97839999D02*
X150198769Y-97911427D01*
X150198769Y-97911427D02*
X150127341Y-97982856D01*
X150127341Y-97982856D02*
X150055912Y-98125713D01*
X150055912Y-98125713D02*
X150055912Y-98411427D01*
X150055912Y-98411427D02*
X150127341Y-98554285D01*
X150055912Y-99911428D02*
X151270198Y-99911428D01*
X151270198Y-99911428D02*
X151413055Y-99839999D01*
X151413055Y-99839999D02*
X151484484Y-99768570D01*
X151484484Y-99768570D02*
X151555912Y-99625713D01*
X151555912Y-99625713D02*
X151555912Y-99411428D01*
X151555912Y-99411428D02*
X151484484Y-99268570D01*
X150984484Y-99911428D02*
X151055912Y-99768570D01*
X151055912Y-99768570D02*
X151055912Y-99482856D01*
X151055912Y-99482856D02*
X150984484Y-99339999D01*
X150984484Y-99339999D02*
X150913055Y-99268570D01*
X150913055Y-99268570D02*
X150770198Y-99197142D01*
X150770198Y-99197142D02*
X150341626Y-99197142D01*
X150341626Y-99197142D02*
X150198769Y-99268570D01*
X150198769Y-99268570D02*
X150127341Y-99339999D01*
X150127341Y-99339999D02*
X150055912Y-99482856D01*
X150055912Y-99482856D02*
X150055912Y-99768570D01*
X150055912Y-99768570D02*
X150127341Y-99911428D01*
X150984484Y-101197142D02*
X151055912Y-101054285D01*
X151055912Y-101054285D02*
X151055912Y-100768571D01*
X151055912Y-100768571D02*
X150984484Y-100625713D01*
X150984484Y-100625713D02*
X150841626Y-100554285D01*
X150841626Y-100554285D02*
X150270198Y-100554285D01*
X150270198Y-100554285D02*
X150127341Y-100625713D01*
X150127341Y-100625713D02*
X150055912Y-100768571D01*
X150055912Y-100768571D02*
X150055912Y-101054285D01*
X150055912Y-101054285D02*
X150127341Y-101197142D01*
X150127341Y-101197142D02*
X150270198Y-101268571D01*
X150270198Y-101268571D02*
X150413055Y-101268571D01*
X150413055Y-101268571D02*
X150555912Y-100554285D01*
X153327971Y-65625715D02*
X153399400Y-65554287D01*
X153399400Y-65554287D02*
X153470828Y-65340001D01*
X153470828Y-65340001D02*
X153470828Y-65197144D01*
X153470828Y-65197144D02*
X153399400Y-64982858D01*
X153399400Y-64982858D02*
X153256542Y-64840001D01*
X153256542Y-64840001D02*
X153113685Y-64768572D01*
X153113685Y-64768572D02*
X152827971Y-64697144D01*
X152827971Y-64697144D02*
X152613685Y-64697144D01*
X152613685Y-64697144D02*
X152327971Y-64768572D01*
X152327971Y-64768572D02*
X152185114Y-64840001D01*
X152185114Y-64840001D02*
X152042257Y-64982858D01*
X152042257Y-64982858D02*
X151970828Y-65197144D01*
X151970828Y-65197144D02*
X151970828Y-65340001D01*
X151970828Y-65340001D02*
X152042257Y-65554287D01*
X152042257Y-65554287D02*
X152113685Y-65625715D01*
X153470828Y-66482858D02*
X153399400Y-66340001D01*
X153399400Y-66340001D02*
X153327971Y-66268572D01*
X153327971Y-66268572D02*
X153185114Y-66197144D01*
X153185114Y-66197144D02*
X152756542Y-66197144D01*
X152756542Y-66197144D02*
X152613685Y-66268572D01*
X152613685Y-66268572D02*
X152542257Y-66340001D01*
X152542257Y-66340001D02*
X152470828Y-66482858D01*
X152470828Y-66482858D02*
X152470828Y-66697144D01*
X152470828Y-66697144D02*
X152542257Y-66840001D01*
X152542257Y-66840001D02*
X152613685Y-66911430D01*
X152613685Y-66911430D02*
X152756542Y-66982858D01*
X152756542Y-66982858D02*
X153185114Y-66982858D01*
X153185114Y-66982858D02*
X153327971Y-66911430D01*
X153327971Y-66911430D02*
X153399400Y-66840001D01*
X153399400Y-66840001D02*
X153470828Y-66697144D01*
X153470828Y-66697144D02*
X153470828Y-66482858D01*
X152470828Y-67625715D02*
X153970828Y-67625715D01*
X152542257Y-67625715D02*
X152470828Y-67768573D01*
X152470828Y-67768573D02*
X152470828Y-68054287D01*
X152470828Y-68054287D02*
X152542257Y-68197144D01*
X152542257Y-68197144D02*
X152613685Y-68268573D01*
X152613685Y-68268573D02*
X152756542Y-68340001D01*
X152756542Y-68340001D02*
X153185114Y-68340001D01*
X153185114Y-68340001D02*
X153327971Y-68268573D01*
X153327971Y-68268573D02*
X153399400Y-68197144D01*
X153399400Y-68197144D02*
X153470828Y-68054287D01*
X153470828Y-68054287D02*
X153470828Y-67768573D01*
X153470828Y-67768573D02*
X153399400Y-67625715D01*
X152470828Y-68840001D02*
X153470828Y-69197144D01*
X152470828Y-69554287D02*
X153470828Y-69197144D01*
X153470828Y-69197144D02*
X153827971Y-69054287D01*
X153827971Y-69054287D02*
X153899400Y-68982858D01*
X153899400Y-68982858D02*
X153970828Y-68840001D01*
X153470828Y-70125715D02*
X152470828Y-70125715D01*
X152756542Y-70125715D02*
X152613685Y-70197144D01*
X152613685Y-70197144D02*
X152542257Y-70268573D01*
X152542257Y-70268573D02*
X152470828Y-70411430D01*
X152470828Y-70411430D02*
X152470828Y-70554287D01*
X153470828Y-71054286D02*
X152470828Y-71054286D01*
X151970828Y-71054286D02*
X152042257Y-70982858D01*
X152042257Y-70982858D02*
X152113685Y-71054286D01*
X152113685Y-71054286D02*
X152042257Y-71125715D01*
X152042257Y-71125715D02*
X151970828Y-71054286D01*
X151970828Y-71054286D02*
X152113685Y-71054286D01*
X152470828Y-72411430D02*
X153685114Y-72411430D01*
X153685114Y-72411430D02*
X153827971Y-72340001D01*
X153827971Y-72340001D02*
X153899400Y-72268572D01*
X153899400Y-72268572D02*
X153970828Y-72125715D01*
X153970828Y-72125715D02*
X153970828Y-71911430D01*
X153970828Y-71911430D02*
X153899400Y-71768572D01*
X153399400Y-72411430D02*
X153470828Y-72268572D01*
X153470828Y-72268572D02*
X153470828Y-71982858D01*
X153470828Y-71982858D02*
X153399400Y-71840001D01*
X153399400Y-71840001D02*
X153327971Y-71768572D01*
X153327971Y-71768572D02*
X153185114Y-71697144D01*
X153185114Y-71697144D02*
X152756542Y-71697144D01*
X152756542Y-71697144D02*
X152613685Y-71768572D01*
X152613685Y-71768572D02*
X152542257Y-71840001D01*
X152542257Y-71840001D02*
X152470828Y-71982858D01*
X152470828Y-71982858D02*
X152470828Y-72268572D01*
X152470828Y-72268572D02*
X152542257Y-72411430D01*
X153470828Y-73125715D02*
X151970828Y-73125715D01*
X153470828Y-73768573D02*
X152685114Y-73768573D01*
X152685114Y-73768573D02*
X152542257Y-73697144D01*
X152542257Y-73697144D02*
X152470828Y-73554287D01*
X152470828Y-73554287D02*
X152470828Y-73340001D01*
X152470828Y-73340001D02*
X152542257Y-73197144D01*
X152542257Y-73197144D02*
X152613685Y-73125715D01*
X152470828Y-74268573D02*
X152470828Y-74840001D01*
X151970828Y-74482858D02*
X153256542Y-74482858D01*
X153256542Y-74482858D02*
X153399400Y-74554287D01*
X153399400Y-74554287D02*
X153470828Y-74697144D01*
X153470828Y-74697144D02*
X153470828Y-74840001D01*
X154042257Y-76911430D02*
X153970828Y-76840001D01*
X153970828Y-76840001D02*
X153756542Y-76697144D01*
X153756542Y-76697144D02*
X153613685Y-76625716D01*
X153613685Y-76625716D02*
X153399400Y-76554287D01*
X153399400Y-76554287D02*
X153042257Y-76482858D01*
X153042257Y-76482858D02*
X152756542Y-76482858D01*
X152756542Y-76482858D02*
X152399400Y-76554287D01*
X152399400Y-76554287D02*
X152185114Y-76625716D01*
X152185114Y-76625716D02*
X152042257Y-76697144D01*
X152042257Y-76697144D02*
X151827971Y-76840001D01*
X151827971Y-76840001D02*
X151756542Y-76911430D01*
X153399400Y-78125716D02*
X153470828Y-77982858D01*
X153470828Y-77982858D02*
X153470828Y-77697144D01*
X153470828Y-77697144D02*
X153399400Y-77554287D01*
X153399400Y-77554287D02*
X153327971Y-77482858D01*
X153327971Y-77482858D02*
X153185114Y-77411430D01*
X153185114Y-77411430D02*
X152756542Y-77411430D01*
X152756542Y-77411430D02*
X152613685Y-77482858D01*
X152613685Y-77482858D02*
X152542257Y-77554287D01*
X152542257Y-77554287D02*
X152470828Y-77697144D01*
X152470828Y-77697144D02*
X152470828Y-77982858D01*
X152470828Y-77982858D02*
X152542257Y-78125716D01*
X154042257Y-78625715D02*
X153970828Y-78697144D01*
X153970828Y-78697144D02*
X153756542Y-78840001D01*
X153756542Y-78840001D02*
X153613685Y-78911430D01*
X153613685Y-78911430D02*
X153399400Y-78982858D01*
X153399400Y-78982858D02*
X153042257Y-79054287D01*
X153042257Y-79054287D02*
X152756542Y-79054287D01*
X152756542Y-79054287D02*
X152399400Y-78982858D01*
X152399400Y-78982858D02*
X152185114Y-78911430D01*
X152185114Y-78911430D02*
X152042257Y-78840001D01*
X152042257Y-78840001D02*
X151827971Y-78697144D01*
X151827971Y-78697144D02*
X151756542Y-78625715D01*
X152113685Y-80840001D02*
X152042257Y-80911429D01*
X152042257Y-80911429D02*
X151970828Y-81054287D01*
X151970828Y-81054287D02*
X151970828Y-81411429D01*
X151970828Y-81411429D02*
X152042257Y-81554287D01*
X152042257Y-81554287D02*
X152113685Y-81625715D01*
X152113685Y-81625715D02*
X152256542Y-81697144D01*
X152256542Y-81697144D02*
X152399400Y-81697144D01*
X152399400Y-81697144D02*
X152613685Y-81625715D01*
X152613685Y-81625715D02*
X153470828Y-80768572D01*
X153470828Y-80768572D02*
X153470828Y-81697144D01*
X151970828Y-82625715D02*
X151970828Y-82768572D01*
X151970828Y-82768572D02*
X152042257Y-82911429D01*
X152042257Y-82911429D02*
X152113685Y-82982858D01*
X152113685Y-82982858D02*
X152256542Y-83054286D01*
X152256542Y-83054286D02*
X152542257Y-83125715D01*
X152542257Y-83125715D02*
X152899400Y-83125715D01*
X152899400Y-83125715D02*
X153185114Y-83054286D01*
X153185114Y-83054286D02*
X153327971Y-82982858D01*
X153327971Y-82982858D02*
X153399400Y-82911429D01*
X153399400Y-82911429D02*
X153470828Y-82768572D01*
X153470828Y-82768572D02*
X153470828Y-82625715D01*
X153470828Y-82625715D02*
X153399400Y-82482858D01*
X153399400Y-82482858D02*
X153327971Y-82411429D01*
X153327971Y-82411429D02*
X153185114Y-82340000D01*
X153185114Y-82340000D02*
X152899400Y-82268572D01*
X152899400Y-82268572D02*
X152542257Y-82268572D01*
X152542257Y-82268572D02*
X152256542Y-82340000D01*
X152256542Y-82340000D02*
X152113685Y-82411429D01*
X152113685Y-82411429D02*
X152042257Y-82482858D01*
X152042257Y-82482858D02*
X151970828Y-82625715D01*
X152113685Y-83697143D02*
X152042257Y-83768571D01*
X152042257Y-83768571D02*
X151970828Y-83911429D01*
X151970828Y-83911429D02*
X151970828Y-84268571D01*
X151970828Y-84268571D02*
X152042257Y-84411429D01*
X152042257Y-84411429D02*
X152113685Y-84482857D01*
X152113685Y-84482857D02*
X152256542Y-84554286D01*
X152256542Y-84554286D02*
X152399400Y-84554286D01*
X152399400Y-84554286D02*
X152613685Y-84482857D01*
X152613685Y-84482857D02*
X153470828Y-83625714D01*
X153470828Y-83625714D02*
X153470828Y-84554286D01*
X151970828Y-85911428D02*
X151970828Y-85197142D01*
X151970828Y-85197142D02*
X152685114Y-85125714D01*
X152685114Y-85125714D02*
X152613685Y-85197142D01*
X152613685Y-85197142D02*
X152542257Y-85340000D01*
X152542257Y-85340000D02*
X152542257Y-85697142D01*
X152542257Y-85697142D02*
X152613685Y-85840000D01*
X152613685Y-85840000D02*
X152685114Y-85911428D01*
X152685114Y-85911428D02*
X152827971Y-85982857D01*
X152827971Y-85982857D02*
X153185114Y-85982857D01*
X153185114Y-85982857D02*
X153327971Y-85911428D01*
X153327971Y-85911428D02*
X153399400Y-85840000D01*
X153399400Y-85840000D02*
X153470828Y-85697142D01*
X153470828Y-85697142D02*
X153470828Y-85340000D01*
X153470828Y-85340000D02*
X153399400Y-85197142D01*
X153399400Y-85197142D02*
X153327971Y-85125714D01*
X153470828Y-88625713D02*
X152756542Y-88125713D01*
X153470828Y-87768570D02*
X151970828Y-87768570D01*
X151970828Y-87768570D02*
X151970828Y-88339999D01*
X151970828Y-88339999D02*
X152042257Y-88482856D01*
X152042257Y-88482856D02*
X152113685Y-88554285D01*
X152113685Y-88554285D02*
X152256542Y-88625713D01*
X152256542Y-88625713D02*
X152470828Y-88625713D01*
X152470828Y-88625713D02*
X152613685Y-88554285D01*
X152613685Y-88554285D02*
X152685114Y-88482856D01*
X152685114Y-88482856D02*
X152756542Y-88339999D01*
X152756542Y-88339999D02*
X152756542Y-87768570D01*
X153470828Y-89268570D02*
X151970828Y-89268570D01*
X153470828Y-89911428D02*
X152685114Y-89911428D01*
X152685114Y-89911428D02*
X152542257Y-89839999D01*
X152542257Y-89839999D02*
X152470828Y-89697142D01*
X152470828Y-89697142D02*
X152470828Y-89482856D01*
X152470828Y-89482856D02*
X152542257Y-89339999D01*
X152542257Y-89339999D02*
X152613685Y-89268570D01*
X152470828Y-90482856D02*
X153470828Y-90839999D01*
X152470828Y-91197142D02*
X153470828Y-90839999D01*
X153470828Y-90839999D02*
X153827971Y-90697142D01*
X153827971Y-90697142D02*
X153899400Y-90625713D01*
X153899400Y-90625713D02*
X153970828Y-90482856D01*
X153399400Y-91697142D02*
X153470828Y-91839999D01*
X153470828Y-91839999D02*
X153470828Y-92125713D01*
X153470828Y-92125713D02*
X153399400Y-92268570D01*
X153399400Y-92268570D02*
X153256542Y-92339999D01*
X153256542Y-92339999D02*
X153185114Y-92339999D01*
X153185114Y-92339999D02*
X153042257Y-92268570D01*
X153042257Y-92268570D02*
X152970828Y-92125713D01*
X152970828Y-92125713D02*
X152970828Y-91911428D01*
X152970828Y-91911428D02*
X152899400Y-91768570D01*
X152899400Y-91768570D02*
X152756542Y-91697142D01*
X152756542Y-91697142D02*
X152685114Y-91697142D01*
X152685114Y-91697142D02*
X152542257Y-91768570D01*
X152542257Y-91768570D02*
X152470828Y-91911428D01*
X152470828Y-91911428D02*
X152470828Y-92125713D01*
X152470828Y-92125713D02*
X152542257Y-92268570D01*
X151970828Y-93982856D02*
X153470828Y-94339999D01*
X153470828Y-94339999D02*
X152399400Y-94625713D01*
X152399400Y-94625713D02*
X153470828Y-94911428D01*
X153470828Y-94911428D02*
X151970828Y-95268571D01*
X153399400Y-96411428D02*
X153470828Y-96268571D01*
X153470828Y-96268571D02*
X153470828Y-95982857D01*
X153470828Y-95982857D02*
X153399400Y-95839999D01*
X153399400Y-95839999D02*
X153256542Y-95768571D01*
X153256542Y-95768571D02*
X152685114Y-95768571D01*
X152685114Y-95768571D02*
X152542257Y-95839999D01*
X152542257Y-95839999D02*
X152470828Y-95982857D01*
X152470828Y-95982857D02*
X152470828Y-96268571D01*
X152470828Y-96268571D02*
X152542257Y-96411428D01*
X152542257Y-96411428D02*
X152685114Y-96482857D01*
X152685114Y-96482857D02*
X152827971Y-96482857D01*
X152827971Y-96482857D02*
X152970828Y-95768571D01*
X153470828Y-97768571D02*
X152685114Y-97768571D01*
X152685114Y-97768571D02*
X152542257Y-97697142D01*
X152542257Y-97697142D02*
X152470828Y-97554285D01*
X152470828Y-97554285D02*
X152470828Y-97268571D01*
X152470828Y-97268571D02*
X152542257Y-97125713D01*
X153399400Y-97768571D02*
X153470828Y-97625713D01*
X153470828Y-97625713D02*
X153470828Y-97268571D01*
X153470828Y-97268571D02*
X153399400Y-97125713D01*
X153399400Y-97125713D02*
X153256542Y-97054285D01*
X153256542Y-97054285D02*
X153113685Y-97054285D01*
X153113685Y-97054285D02*
X152970828Y-97125713D01*
X152970828Y-97125713D02*
X152899400Y-97268571D01*
X152899400Y-97268571D02*
X152899400Y-97625713D01*
X152899400Y-97625713D02*
X152827971Y-97768571D01*
X152470828Y-98268571D02*
X152470828Y-98839999D01*
X151970828Y-98482856D02*
X153256542Y-98482856D01*
X153256542Y-98482856D02*
X153399400Y-98554285D01*
X153399400Y-98554285D02*
X153470828Y-98697142D01*
X153470828Y-98697142D02*
X153470828Y-98839999D01*
X153470828Y-99339999D02*
X151970828Y-99339999D01*
X153470828Y-99982857D02*
X152685114Y-99982857D01*
X152685114Y-99982857D02*
X152542257Y-99911428D01*
X152542257Y-99911428D02*
X152470828Y-99768571D01*
X152470828Y-99768571D02*
X152470828Y-99554285D01*
X152470828Y-99554285D02*
X152542257Y-99411428D01*
X152542257Y-99411428D02*
X152613685Y-99339999D01*
X153399400Y-101268571D02*
X153470828Y-101125714D01*
X153470828Y-101125714D02*
X153470828Y-100840000D01*
X153470828Y-100840000D02*
X153399400Y-100697142D01*
X153399400Y-100697142D02*
X153256542Y-100625714D01*
X153256542Y-100625714D02*
X152685114Y-100625714D01*
X152685114Y-100625714D02*
X152542257Y-100697142D01*
X152542257Y-100697142D02*
X152470828Y-100840000D01*
X152470828Y-100840000D02*
X152470828Y-101125714D01*
X152470828Y-101125714D02*
X152542257Y-101268571D01*
X152542257Y-101268571D02*
X152685114Y-101340000D01*
X152685114Y-101340000D02*
X152827971Y-101340000D01*
X152827971Y-101340000D02*
X152970828Y-100625714D01*
X153470828Y-101982856D02*
X152470828Y-101982856D01*
X152756542Y-101982856D02*
X152613685Y-102054285D01*
X152613685Y-102054285D02*
X152542257Y-102125714D01*
X152542257Y-102125714D02*
X152470828Y-102268571D01*
X152470828Y-102268571D02*
X152470828Y-102411428D01*
X153470828Y-103125713D02*
X153399400Y-102982856D01*
X153399400Y-102982856D02*
X153256542Y-102911427D01*
X153256542Y-102911427D02*
X151970828Y-102911427D01*
X153399400Y-104268570D02*
X153470828Y-104125713D01*
X153470828Y-104125713D02*
X153470828Y-103839999D01*
X153470828Y-103839999D02*
X153399400Y-103697141D01*
X153399400Y-103697141D02*
X153256542Y-103625713D01*
X153256542Y-103625713D02*
X152685114Y-103625713D01*
X152685114Y-103625713D02*
X152542257Y-103697141D01*
X152542257Y-103697141D02*
X152470828Y-103839999D01*
X152470828Y-103839999D02*
X152470828Y-104125713D01*
X152470828Y-104125713D02*
X152542257Y-104268570D01*
X152542257Y-104268570D02*
X152685114Y-104339999D01*
X152685114Y-104339999D02*
X152827971Y-104339999D01*
X152827971Y-104339999D02*
X152970828Y-103625713D01*
X152470828Y-104839998D02*
X153470828Y-105197141D01*
X152470828Y-105554284D02*
X153470828Y-105197141D01*
X153470828Y-105197141D02*
X153827971Y-105054284D01*
X153827971Y-105054284D02*
X153899400Y-104982855D01*
X153899400Y-104982855D02*
X153970828Y-104839998D01*
D11*
X108283333Y-117567419D02*
X108283333Y-118281704D01*
X108283333Y-118281704D02*
X108330952Y-118424561D01*
X108330952Y-118424561D02*
X108426190Y-118519800D01*
X108426190Y-118519800D02*
X108569047Y-118567419D01*
X108569047Y-118567419D02*
X108664285Y-118567419D01*
X107283333Y-118567419D02*
X107854761Y-118567419D01*
X107569047Y-118567419D02*
X107569047Y-117567419D01*
X107569047Y-117567419D02*
X107664285Y-117710276D01*
X107664285Y-117710276D02*
X107759523Y-117805514D01*
X107759523Y-117805514D02*
X107854761Y-117853133D01*
D12*
X99000000Y-55880000D02*
X99000000Y-119440000D01*
X104080000Y-116840000D02*
X104080000Y-119440000D01*
X104080000Y-119440000D02*
X99000000Y-119440000D01*
X106680000Y-55880000D02*
X99000000Y-55880000D01*
X106680000Y-55880000D02*
X106680000Y-116840000D01*
X106680000Y-116840000D02*
X104080000Y-116840000D01*
X106680000Y-118110000D02*
X106680000Y-119440000D01*
X106680000Y-119440000D02*
X105350000Y-119440000D01*
M02*
